<?xml version="1.0" encoding="UTF-8"?>
<!DOCTYPE xmeml>
<xmeml version="4">
	<sequence id="sequence-1" TL.SQAudioVisibleBase="0" TL.SQVideoVisibleBase="0" TL.SQVisibleBaseTime="0" TL.SQAVDividerPosition="0.5" TL.SQHideShyTracks="0" TL.SQHeaderWidth="236" Monitor.ProgramZoomOut="6487886716596" Monitor.ProgramZoomIn="0" TL.SQTimePerPixel="0.05398147176651065" MZ.EditLine="0" MZ.Sequence.PreviewFrameSizeHeight="2094" MZ.Sequence.PreviewFrameSizeWidth="1080" MZ.Sequence.AudioTimeDisplayFormat="200" MZ.Sequence.PreviewRenderingClassID="1061109567" MZ.Sequence.PreviewRenderingPresetCodec="1634755438" MZ.Sequence.PreviewRenderingPresetPath="EncoderPresets/SequencePreview/795454d9-d3c2-429d-9474-923ab13b7018/QuickTime.epr" MZ.Sequence.PreviewUseMaxRenderQuality="false" MZ.Sequence.PreviewUseMaxBitDepth="false" MZ.Sequence.EditingModeGUID="795454d9-d3c2-429d-9474-923ab13b7018" MZ.Sequence.VideoTimeDisplayFormat="102" MZ.WorkOutPoint="2965250484000" MZ.WorkInPoint="0" MZ.ZeroPoint="0" explodedTracks="true">
		<uuid>f42c3189-34a6-46ed-8ad6-3755fb5c92e2</uuid>
		<duration>289</duration>
		<rate>
			<timebase>34</timebase>
			<ntsc>FALSE</ntsc>
		</rate>
		<name>SM-G9550_20190917105200</name>
		<media>
			<video>
				<format>
					<samplecharacteristics>
						<rate>
							<timebase>34</timebase>
							<ntsc>FALSE</ntsc>
						</rate>
						<codec>
							<name>Apple ProRes 422</name>
							<appspecificdata>
								<appname>Final Cut Pro</appname>
								<appmanufacturer>Apple Inc.</appmanufacturer>
								<appversion>7.0</appversion>
								<data>
									<qtcodec>
										<codecname>Apple ProRes 422</codecname>
										<codectypename>Apple ProRes 422</codectypename>
										<codectypecode>apcn</codectypecode>
										<codecvendorcode>appl</codecvendorcode>
										<spatialquality>1024</spatialquality>
										<temporalquality>0</temporalquality>
										<keyframerate>0</keyframerate>
										<datarate>0</datarate>
									</qtcodec>
								</data>
							</appspecificdata>
						</codec>
						<width>1080</width>
						<height>2094</height>
						<anamorphic>FALSE</anamorphic>
						<pixelaspectratio>square</pixelaspectratio>
						<fielddominance>none</fielddominance>
						<colordepth>24</colordepth>
					</samplecharacteristics>
				</format>
				<track TL.SQTrackShy="0" TL.SQTrackExpandedHeight="25" TL.SQTrackExpanded="0" MZ.TrackTargeted="1">
					<clipitem id="clipitem-1">
						<masterclipid>masterclip-1</masterclipid>
						<name>SM-G9550_20190917105200.mp4</name>
						<enabled>TRUE</enabled>
						<duration>297</duration>
						<rate>
							<timebase>34</timebase>
							<ntsc>FALSE</ntsc>
						</rate>
						<start>0</start>
						<end>58</end>
						<in>63</in>
						<out>121</out>
						<pproTicksIn>637375860341</pproTicksIn>
						<pproTicksOut>1214997733774</pproTicksOut>
						<alphatype>none</alphatype>
						<pixelaspectratio>square</pixelaspectratio>
						<anamorphic>FALSE</anamorphic>
						<file id="file-1">
							<name>SM-G9550_20190917105200.mp4</name>
							<pathurl>file://localhost/Users/apple/Downloads/SM-G9550_20190917105200.mp4</pathurl>
							<rate>
								<timebase>34</timebase>
								<ntsc>FALSE</ntsc>
							</rate>
							<duration>399</duration>
							<timecode>
								<rate>
									<timebase>34</timebase>
									<ntsc>FALSE</ntsc>
								</rate>
								<string>00:00:00:00</string>
								<frame>0</frame>
								<displayformat>NDF</displayformat>
							</timecode>
							<media>
								<video>
									<samplecharacteristics>
										<rate>
											<timebase>34</timebase>
											<ntsc>FALSE</ntsc>
										</rate>
										<width>1080</width>
										<height>2094</height>
										<anamorphic>FALSE</anamorphic>
										<pixelaspectratio>square</pixelaspectratio>
										<fielddominance>none</fielddominance>
									</samplecharacteristics>
								</video>
							</media>
						</file>
						<filter>
							<effect>
								<name>Time Remap</name>
								<effectid>timeremap</effectid>
								<effectcategory>motion</effectcategory>
								<effecttype>motion</effecttype>
								<mediatype>video</mediatype>
								<parameter authoringApp="PremierePro">
									<parameterid>variablespeed</parameterid>
									<name>variablespeed</name>
									<valuemin>0</valuemin>
									<valuemax>1</valuemax>
									<value>0</value>
								</parameter>
								<parameter authoringApp="PremierePro">
									<parameterid>speed</parameterid>
									<name>speed</name>
									<valuemin>-100000</valuemin>
									<valuemax>100000</valuemax>
									<value>134.343</value>
								</parameter>
								<parameter authoringApp="PremierePro">
									<parameterid>reverse</parameterid>
									<name>reverse</name>
									<value>FALSE</value>
								</parameter>
								<parameter authoringApp="PremierePro">
									<parameterid>frameblending</parameterid>
									<name>frameblending</name>
									<value>FALSE</value>
								</parameter>
								<parameter authoringApp="PremierePro">
									<parameterid>graphdict</parameterid>
									<name>graphdict</name>
									<valuemin>0</valuemin>
									<valuemax>399</valuemax>
									<value>0</value>
									<keyframe>
										<when>0</when>
										<value>0</value>
										<speedvirtualkf>TRUE</speedvirtualkf>
										<speedkfstart>TRUE</speedkfstart>
									</keyframe>
									<keyframe>
										<when>63</when>
										<value>84</value>
										<speedvirtualkf>TRUE</speedvirtualkf>
										<speedkfin>TRUE</speedkfin>
									</keyframe>
									<keyframe>
										<when>121</when>
										<value>162</value>
										<speedvirtualkf>TRUE</speedvirtualkf>
										<speedkfout>TRUE</speedkfout>
									</keyframe>
									<keyframe>
										<when>297</when>
										<value>399</value>
										<speedvirtualkf>TRUE</speedvirtualkf>
										<speedkfend>TRUE</speedkfend>
									</keyframe>
									<interpolation>
										<name>FCPCurve</name>
									</interpolation>
								</parameter>
							</effect>
						</filter>
						<logginginfo>
							<description></description>
							<scene></scene>
							<shottake></shottake>
							<lognote></lognote>
							<good></good>
							<originalvideofilename></originalvideofilename>
							<originalaudiofilename></originalaudiofilename>
						</logginginfo>
						<colorinfo>
							<lut></lut>
							<lut1></lut1>
							<asc_sop></asc_sop>
							<asc_sat></asc_sat>
							<lut2></lut2>
						</colorinfo>
						<labels>
							<label2>Violet</label2>
						</labels>
					</clipitem>
					<clipitem id="clipitem-2">
						<masterclipid>masterclip-1</masterclipid>
						<name>SM-G9550_20190917105200.mp4</name>
						<enabled>TRUE</enabled>
						<duration>208</duration>
						<rate>
							<timebase>34</timebase>
							<ntsc>FALSE</ntsc>
						</rate>
						<start>58</start>
						<end>119</end>
						<in>119</in>
						<out>180</out>
						<pproTicksIn>1693029629030</pproTicksIn>
						<pproTicksOut>2559483627676</pproTicksOut>
						<alphatype>none</alphatype>
						<file id="file-1"/>
						<filter>
							<effect>
								<name>Time Remap</name>
								<effectid>timeremap</effectid>
								<effectcategory>motion</effectcategory>
								<effecttype>motion</effecttype>
								<mediatype>video</mediatype>
								<parameter authoringApp="PremierePro">
									<parameterid>variablespeed</parameterid>
									<name>variablespeed</name>
									<valuemin>0</valuemin>
									<valuemax>1</valuemax>
									<value>0</value>
								</parameter>
								<parameter authoringApp="PremierePro">
									<parameterid>speed</parameterid>
									<name>speed</name>
									<valuemin>-100000</valuemin>
									<valuemax>100000</valuemax>
									<value>191.827</value>
								</parameter>
								<parameter authoringApp="PremierePro">
									<parameterid>reverse</parameterid>
									<name>reverse</name>
									<value>FALSE</value>
								</parameter>
								<parameter authoringApp="PremierePro">
									<parameterid>frameblending</parameterid>
									<name>frameblending</name>
									<value>FALSE</value>
								</parameter>
								<parameter authoringApp="PremierePro">
									<parameterid>graphdict</parameterid>
									<name>graphdict</name>
									<valuemin>0</valuemin>
									<valuemax>399</valuemax>
									<value>0</value>
									<keyframe>
										<when>0</when>
										<value>0</value>
										<speedvirtualkf>TRUE</speedvirtualkf>
										<speedkfstart>TRUE</speedkfstart>
									</keyframe>
									<keyframe>
										<when>119</when>
										<value>228</value>
										<speedvirtualkf>TRUE</speedvirtualkf>
										<speedkfin>TRUE</speedkfin>
									</keyframe>
									<keyframe>
										<when>180</when>
										<value>345</value>
										<speedvirtualkf>TRUE</speedvirtualkf>
										<speedkfout>TRUE</speedkfout>
									</keyframe>
									<keyframe>
										<when>208</when>
										<value>399</value>
										<speedvirtualkf>TRUE</speedvirtualkf>
										<speedkfend>TRUE</speedkfend>
									</keyframe>
									<interpolation>
										<name>FCPCurve</name>
									</interpolation>
								</parameter>
							</effect>
						</filter>
						<logginginfo>
							<description></description>
							<scene></scene>
							<shottake></shottake>
							<lognote></lognote>
							<good></good>
							<originalvideofilename></originalvideofilename>
							<originalaudiofilename></originalaudiofilename>
						</logginginfo>
						<colorinfo>
							<lut></lut>
							<lut1></lut1>
							<asc_sop></asc_sop>
							<asc_sat></asc_sat>
							<lut2></lut2>
						</colorinfo>
						<labels>
							<label2>Violet</label2>
						</labels>
					</clipitem>
					<clipitem id="clipitem-3">
						<masterclipid>masterclip-2</masterclipid>
						<name>SM-G9550_20190917105200.00_00_11_18.静止002.jpg</name>
						<enabled>TRUE</enabled>
						<duration>1476576</duration>
						<rate>
							<timebase>34</timebase>
							<ntsc>FALSE</ntsc>
						</rate>
						<start>119</start>
						<end>289</end>
						<in>123048</in>
						<out>123218</out>
						<pproTicksIn>914457599889696</pproTicksIn>
						<pproTicksOut>915720991346536</pproTicksOut>
						<alphatype>none</alphatype>
						<pixelaspectratio>square</pixelaspectratio>
						<anamorphic>FALSE</anamorphic>
						<file id="file-2">
							<name>SM-G9550_20190917105200.00_00_11_18.静止002.jpg</name>
							<pathurl>file://localhost/Users/apple/Desktop/SM-G9550_20190917105200.00_00_11_18.%e9%9d%99%e6%ad%a2002.jpg</pathurl>
							<rate>
								<timebase>30</timebase>
								<ntsc>TRUE</ntsc>
							</rate>
							<timecode>
								<rate>
									<timebase>30</timebase>
									<ntsc>TRUE</ntsc>
								</rate>
								<string>00;00;11;18</string>
								<frame>348</frame>
								<displayformat>DF</displayformat>
							</timecode>
							<media>
								<video>
									<samplecharacteristics>
										<rate>
											<timebase>30</timebase>
											<ntsc>TRUE</ntsc>
										</rate>
										<width>1080</width>
										<height>2094</height>
										<anamorphic>FALSE</anamorphic>
										<pixelaspectratio>square</pixelaspectratio>
										<fielddominance>none</fielddominance>
									</samplecharacteristics>
								</video>
							</media>
						</file>
						<logginginfo>
							<description></description>
							<scene></scene>
							<shottake></shottake>
							<lognote></lognote>
							<good></good>
							<originalvideofilename></originalvideofilename>
							<originalaudiofilename></originalaudiofilename>
						</logginginfo>
						<colorinfo>
							<lut></lut>
							<lut1></lut1>
							<asc_sop></asc_sop>
							<asc_sat></asc_sat>
							<lut2></lut2>
						</colorinfo>
						<labels>
							<label2>Lavender</label2>
						</labels>
					</clipitem>
					<enabled>TRUE</enabled>
					<locked>FALSE</locked>
				</track>
				<track TL.SQTrackShy="0" TL.SQTrackExpandedHeight="25" TL.SQTrackExpanded="0" MZ.TrackTargeted="0">
					<transitionitem>
						<start>169</start>
						<end>180</end>
						<alignment>start-black</alignment>
						<cutPointTicks>0</cutPointTicks>
						<rate>
							<timebase>34</timebase>
							<ntsc>FALSE</ntsc>
						</rate>
						<effect>
							<name>Cross Dissolve</name>
							<effectid>Cross Dissolve</effectid>
							<effectcategory>Dissolve</effectcategory>
							<effecttype>transition</effecttype>
							<mediatype>video</mediatype>
							<wipecode>0</wipecode>
							<wipeaccuracy>100</wipeaccuracy>
							<startratio>0</startratio>
							<endratio>1</endratio>
							<reverse>FALSE</reverse>
						</effect>
					</transitionitem>
					<clipitem id="clipitem-4">
						<masterclipid>masterclip-3</masterclipid>
						<name>02.jpg</name>
						<enabled>TRUE</enabled>
						<duration>1294705</duration>
						<rate>
							<timebase>30</timebase>
							<ntsc>TRUE</ntsc>
						</rate>
						<start>-1</start>
						<end>339</end>
						<in>107891</in>
						<out>108040</out>
						<pproTicksIn>914450168175244</pproTicksIn>
						<pproTicksOut>915713559632084</pproTicksOut>
						<alphatype>none</alphatype>
						<pixelaspectratio>square</pixelaspectratio>
						<anamorphic>FALSE</anamorphic>
						<file id="file-3">
							<name>02.jpg</name>
							<pathurl>file://localhost/Users/apple/Desktop/02.jpg</pathurl>
							<rate>
								<timebase>30</timebase>
								<ntsc>TRUE</ntsc>
							</rate>
							<timecode>
								<rate>
									<timebase>30</timebase>
									<ntsc>TRUE</ntsc>
								</rate>
								<string>00;00;11;18</string>
								<frame>348</frame>
								<displayformat>DF</displayformat>
							</timecode>
							<media>
								<video>
									<samplecharacteristics>
										<rate>
											<timebase>30</timebase>
											<ntsc>TRUE</ntsc>
										</rate>
										<width>1080</width>
										<height>2094</height>
										<anamorphic>FALSE</anamorphic>
										<pixelaspectratio>square</pixelaspectratio>
										<fielddominance>none</fielddominance>
									</samplecharacteristics>
								</video>
							</media>
						</file>
						<logginginfo>
							<description></description>
							<scene></scene>
							<shottake></shottake>
							<lognote></lognote>
							<good></good>
							<originalvideofilename></originalvideofilename>
							<originalaudiofilename></originalaudiofilename>
						</logginginfo>
						<colorinfo>
							<lut></lut>
							<lut1></lut1>
							<asc_sop></asc_sop>
							<asc_sat></asc_sat>
							<lut2></lut2>
						</colorinfo>
						<labels>
							<label2>Lavender</label2>
						</labels>
					</clipitem>
					<enabled>TRUE</enabled>
					<locked>FALSE</locked>
				</track>
				<track TL.SQTrackShy="0" TL.SQTrackExpandedHeight="25" TL.SQTrackExpanded="0" MZ.TrackTargeted="0">
					<clipitem id="clipitem-5">
						<masterclipid>masterclip-4</masterclipid>
						<name>03.jpg</name>
						<enabled>TRUE</enabled>
						<duration>1294705</duration>
						<rate>
							<timebase>30</timebase>
							<ntsc>TRUE</ntsc>
						</rate>
						<start>186</start>
						<end>356</end>
						<in>107891</in>
						<out>108040</out>
						<pproTicksIn>914450168175244</pproTicksIn>
						<pproTicksOut>915713559632084</pproTicksOut>
						<alphatype>none</alphatype>
						<pixelaspectratio>square</pixelaspectratio>
						<anamorphic>FALSE</anamorphic>
						<file id="file-4">
							<name>03.jpg</name>
							<pathurl>file://localhost/Users/apple/Desktop/03.jpg</pathurl>
							<rate>
								<timebase>30</timebase>
								<ntsc>TRUE</ntsc>
							</rate>
							<timecode>
								<rate>
									<timebase>30</timebase>
									<ntsc>TRUE</ntsc>
								</rate>
								<string>00;00;11;18</string>
								<frame>348</frame>
								<displayformat>DF</displayformat>
							</timecode>
							<media>
								<video>
									<samplecharacteristics>
										<rate>
											<timebase>30</timebase>
											<ntsc>TRUE</ntsc>
										</rate>
										<width>1080</width>
										<height>2094</height>
										<anamorphic>FALSE</anamorphic>
										<pixelaspectratio>square</pixelaspectratio>
										<fielddominance>none</fielddominance>
									</samplecharacteristics>
								</video>
							</media>
						</file>
						<logginginfo>
							<description></description>
							<scene></scene>
							<shottake></shottake>
							<lognote></lognote>
							<good></good>
							<originalvideofilename></originalvideofilename>
							<originalaudiofilename></originalaudiofilename>
						</logginginfo>
						<colorinfo>
							<lut></lut>
							<lut1></lut1>
							<asc_sop></asc_sop>
							<asc_sat></asc_sat>
							<lut2></lut2>
						</colorinfo>
						<labels>
							<label2>Lavender</label2>
						</labels>
					</clipitem>
					<enabled>TRUE</enabled>
					<locked>FALSE</locked>
				</track>
				<track TL.SQTrackShy="0" TL.SQTrackExpandedHeight="25" TL.SQTrackExpanded="0" MZ.TrackTargeted="0">
					<clipitem id="clipitem-6">
						<masterclipid>masterclip-5</masterclipid>
						<name>04.jpg</name>
						<enabled>TRUE</enabled>
						<duration>1294705</duration>
						<rate>
							<timebase>30</timebase>
							<ntsc>TRUE</ntsc>
						</rate>
						<start>208</start>
						<end>378</end>
						<in>107891</in>
						<out>108040</out>
						<pproTicksIn>914450168175244</pproTicksIn>
						<pproTicksOut>915713559632084</pproTicksOut>
						<alphatype>none</alphatype>
						<pixelaspectratio>square</pixelaspectratio>
						<anamorphic>FALSE</anamorphic>
						<file id="file-5">
							<name>04.jpg</name>
							<pathurl>file://localhost/Users/apple/Desktop/04.jpg</pathurl>
							<rate>
								<timebase>30</timebase>
								<ntsc>TRUE</ntsc>
							</rate>
							<timecode>
								<rate>
									<timebase>30</timebase>
									<ntsc>TRUE</ntsc>
								</rate>
								<string>00;00;11;18</string>
								<frame>348</frame>
								<displayformat>DF</displayformat>
							</timecode>
							<media>
								<video>
									<samplecharacteristics>
										<rate>
											<timebase>30</timebase>
											<ntsc>TRUE</ntsc>
										</rate>
										<width>1080</width>
										<height>2094</height>
										<anamorphic>FALSE</anamorphic>
										<pixelaspectratio>square</pixelaspectratio>
										<fielddominance>none</fielddominance>
									</samplecharacteristics>
								</video>
							</media>
						</file>
						<logginginfo>
							<description></description>
							<scene></scene>
							<shottake></shottake>
							<lognote></lognote>
							<good></good>
							<originalvideofilename></originalvideofilename>
							<originalaudiofilename></originalaudiofilename>
						</logginginfo>
						<colorinfo>
							<lut></lut>
							<lut1></lut1>
							<asc_sop></asc_sop>
							<asc_sat></asc_sat>
							<lut2></lut2>
						</colorinfo>
						<labels>
							<label2>Lavender</label2>
						</labels>
					</clipitem>
					<enabled>TRUE</enabled>
					<locked>FALSE</locked>
				</track>
				<track TL.SQTrackShy="0" TL.SQTrackExpandedHeight="25" TL.SQTrackExpanded="0" MZ.TrackTargeted="0">
					<clipitem id="clipitem-7">
						<masterclipid>masterclip-6</masterclipid>
						<name>05.jpg</name>
						<enabled>TRUE</enabled>
						<duration>1294705</duration>
						<rate>
							<timebase>30</timebase>
							<ntsc>TRUE</ntsc>
						</rate>
						<start>279</start>
						<end>531</end>
						<in>107891</in>
						<out>108112</out>
						<pproTicksIn>914450168175244</pproTicksIn>
						<pproTicksOut>916322960217148</pproTicksOut>
						<alphatype>none</alphatype>
						<pixelaspectratio>square</pixelaspectratio>
						<anamorphic>FALSE</anamorphic>
						<file id="file-6">
							<name>05.jpg</name>
							<pathurl>file://localhost/Users/apple/Desktop/05.jpg</pathurl>
							<rate>
								<timebase>30</timebase>
								<ntsc>TRUE</ntsc>
							</rate>
							<timecode>
								<rate>
									<timebase>30</timebase>
									<ntsc>TRUE</ntsc>
								</rate>
								<string>00;00;11;18</string>
								<frame>348</frame>
								<displayformat>DF</displayformat>
							</timecode>
							<media>
								<video>
									<samplecharacteristics>
										<rate>
											<timebase>30</timebase>
											<ntsc>TRUE</ntsc>
										</rate>
										<width>1080</width>
										<height>2094</height>
										<anamorphic>FALSE</anamorphic>
										<pixelaspectratio>square</pixelaspectratio>
										<fielddominance>none</fielddominance>
									</samplecharacteristics>
								</video>
							</media>
						</file>
						<logginginfo>
							<description></description>
							<scene></scene>
							<shottake></shottake>
							<lognote></lognote>
							<good></good>
							<originalvideofilename></originalvideofilename>
							<originalaudiofilename></originalaudiofilename>
						</logginginfo>
						<colorinfo>
							<lut></lut>
							<lut1></lut1>
							<asc_sop></asc_sop>
							<asc_sat></asc_sat>
							<lut2></lut2>
						</colorinfo>
						<labels>
							<label2>Lavender</label2>
						</labels>
					</clipitem>
					<enabled>TRUE</enabled>
					<locked>FALSE</locked>
				</track>
				<track TL.SQTrackShy="0" TL.SQTrackExpandedHeight="25" TL.SQTrackExpanded="0" MZ.TrackTargeted="0">
					<clipitem id="clipitem-8">
						<masterclipid>masterclip-5</masterclipid>
						<name>04.jpg</name>
						<enabled>TRUE</enabled>
						<duration>1294705</duration>
						<rate>
							<timebase>30</timebase>
							<ntsc>TRUE</ntsc>
						</rate>
						<start>387</start>
						<end>509</end>
						<in>107900</in>
						<out>108007</out>
						<pproTicksIn>914531917034216</pproTicksIn>
						<pproTicksOut>915438586197360</pproTicksOut>
						<alphatype>none</alphatype>
						<file id="file-5"/>
						<logginginfo>
							<description></description>
							<scene></scene>
							<shottake></shottake>
							<lognote></lognote>
							<good></good>
							<originalvideofilename></originalvideofilename>
							<originalaudiofilename></originalaudiofilename>
						</logginginfo>
						<colorinfo>
							<lut></lut>
							<lut1></lut1>
							<asc_sop></asc_sop>
							<asc_sat></asc_sat>
							<lut2></lut2>
						</colorinfo>
						<labels>
							<label2>Lavender</label2>
						</labels>
					</clipitem>
					<clipitem id="clipitem-9">
						<masterclipid>masterclip-1</masterclipid>
						<name>SM-G9550_20190917105200.mp4</name>
						<enabled>TRUE</enabled>
						<duration>399</duration>
						<rate>
							<timebase>34</timebase>
							<ntsc>FALSE</ntsc>
						</rate>
						<start>516</start>
						<end>607</end>
						<in>303</in>
						<out>394</out>
						<pproTicksIn>2251809478956</pproTicksIn>
						<pproTicksOut>2928095494088</pproTicksOut>
						<alphatype>none</alphatype>
						<file id="file-1"/>
						<logginginfo>
							<description></description>
							<scene></scene>
							<shottake></shottake>
							<lognote></lognote>
							<good></good>
							<originalvideofilename></originalvideofilename>
							<originalaudiofilename></originalaudiofilename>
						</logginginfo>
						<colorinfo>
							<lut></lut>
							<lut1></lut1>
							<asc_sop></asc_sop>
							<asc_sat></asc_sat>
							<lut2></lut2>
						</colorinfo>
						<labels>
							<label2>Violet</label2>
						</labels>
					</clipitem>
					<clipitem id="clipitem-10">
						<masterclipid>masterclip-2</masterclipid>
						<name>SM-G9550_20190917105200.00_00_11_18.静止002.jpg</name>
						<enabled>TRUE</enabled>
						<duration>1476576</duration>
						<rate>
							<timebase>34</timebase>
							<ntsc>FALSE</ntsc>
						</rate>
						<start>607</start>
						<end>777</end>
						<in>123048</in>
						<out>123218</out>
						<pproTicksIn>914457599889696</pproTicksIn>
						<pproTicksOut>915720991346536</pproTicksOut>
						<alphatype>none</alphatype>
						<file id="file-2"/>
						<logginginfo>
							<description></description>
							<scene></scene>
							<shottake></shottake>
							<lognote></lognote>
							<good></good>
							<originalvideofilename></originalvideofilename>
							<originalaudiofilename></originalaudiofilename>
						</logginginfo>
						<colorinfo>
							<lut></lut>
							<lut1></lut1>
							<asc_sop></asc_sop>
							<asc_sat></asc_sat>
							<lut2></lut2>
						</colorinfo>
						<labels>
							<label2>Lavender</label2>
						</labels>
					</clipitem>
					<enabled>TRUE</enabled>
					<locked>FALSE</locked>
				</track>
				<track TL.SQTrackShy="0" TL.SQTrackExpandedHeight="25" TL.SQTrackExpanded="0" MZ.TrackTargeted="0">
					<clipitem id="clipitem-11">
						<masterclipid>masterclip-7</masterclipid>
						<name>08.jpg</name>
						<enabled>TRUE</enabled>
						<duration>1294705</duration>
						<rate>
							<timebase>30</timebase>
							<ntsc>TRUE</ntsc>
						</rate>
						<start>444</start>
						<end>527</end>
						<in>107864</in>
						<out>107937</out>
						<pproTicksIn>914227216741684</pproTicksIn>
						<pproTicksOut>914844049041200</pproTicksOut>
						<alphatype>none</alphatype>
						<pixelaspectratio>square</pixelaspectratio>
						<anamorphic>FALSE</anamorphic>
						<file id="file-7">
							<name>08.jpg</name>
							<pathurl>file://localhost/Users/apple/Desktop/08.jpg</pathurl>
							<rate>
								<timebase>30</timebase>
								<ntsc>TRUE</ntsc>
							</rate>
							<timecode>
								<rate>
									<timebase>30</timebase>
									<ntsc>TRUE</ntsc>
								</rate>
								<string>00;00;11;18</string>
								<frame>348</frame>
								<displayformat>DF</displayformat>
							</timecode>
							<media>
								<video>
									<samplecharacteristics>
										<rate>
											<timebase>30</timebase>
											<ntsc>TRUE</ntsc>
										</rate>
										<width>1080</width>
										<height>2094</height>
										<anamorphic>FALSE</anamorphic>
										<pixelaspectratio>square</pixelaspectratio>
										<fielddominance>none</fielddominance>
									</samplecharacteristics>
								</video>
							</media>
						</file>
						<logginginfo>
							<description></description>
							<scene></scene>
							<shottake></shottake>
							<lognote></lognote>
							<good></good>
							<originalvideofilename></originalvideofilename>
							<originalaudiofilename></originalaudiofilename>
						</logginginfo>
						<colorinfo>
							<lut></lut>
							<lut1></lut1>
							<asc_sop></asc_sop>
							<asc_sat></asc_sat>
							<lut2></lut2>
						</colorinfo>
						<labels>
							<label2>Lavender</label2>
						</labels>
					</clipitem>
					<clipitem id="clipitem-12">
						<masterclipid>masterclip-6</masterclipid>
						<name>05.jpg</name>
						<enabled>TRUE</enabled>
						<duration>1294705</duration>
						<rate>
							<timebase>30</timebase>
							<ntsc>TRUE</ntsc>
						</rate>
						<start>637</start>
						<end>850</end>
						<in>107891</in>
						<out>108077</out>
						<pproTicksIn>914450168175244</pproTicksIn>
						<pproTicksOut>916033123353520</pproTicksOut>
						<alphatype>none</alphatype>
						<file id="file-6"/>
						<logginginfo>
							<description></description>
							<scene></scene>
							<shottake></shottake>
							<lognote></lognote>
							<good></good>
							<originalvideofilename></originalvideofilename>
							<originalaudiofilename></originalaudiofilename>
						</logginginfo>
						<colorinfo>
							<lut></lut>
							<lut1></lut1>
							<asc_sop></asc_sop>
							<asc_sat></asc_sat>
							<lut2></lut2>
						</colorinfo>
						<labels>
							<label2>Lavender</label2>
						</labels>
					</clipitem>
					<enabled>TRUE</enabled>
					<locked>FALSE</locked>
				</track>
				<track TL.SQTrackShy="0" TL.SQTrackExpandedHeight="25" TL.SQTrackExpanded="0" MZ.TrackTargeted="0">
					<clipitem id="clipitem-13">
						<masterclipid>masterclip-8</masterclipid>
						<name>06.jpg</name>
						<enabled>TRUE</enabled>
						<duration>1294705</duration>
						<rate>
							<timebase>30</timebase>
							<ntsc>TRUE</ntsc>
						</rate>
						<start>748</start>
						<end>873</end>
						<in>107891</in>
						<out>108000</out>
						<pproTicksIn>914450168175244</pproTicksIn>
						<pproTicksOut>915379132481744</pproTicksOut>
						<alphatype>none</alphatype>
						<pixelaspectratio>square</pixelaspectratio>
						<anamorphic>FALSE</anamorphic>
						<file id="file-8">
							<name>06.jpg</name>
							<pathurl>file://localhost/Users/apple/Desktop/06.jpg</pathurl>
							<rate>
								<timebase>30</timebase>
								<ntsc>TRUE</ntsc>
							</rate>
							<timecode>
								<rate>
									<timebase>30</timebase>
									<ntsc>TRUE</ntsc>
								</rate>
								<string>00;00;11;18</string>
								<frame>348</frame>
								<displayformat>DF</displayformat>
							</timecode>
							<media>
								<video>
									<samplecharacteristics>
										<rate>
											<timebase>30</timebase>
											<ntsc>TRUE</ntsc>
										</rate>
										<width>1080</width>
										<height>2094</height>
										<anamorphic>FALSE</anamorphic>
										<pixelaspectratio>square</pixelaspectratio>
										<fielddominance>none</fielddominance>
									</samplecharacteristics>
								</video>
							</media>
						</file>
						<logginginfo>
							<description></description>
							<scene></scene>
							<shottake></shottake>
							<lognote></lognote>
							<good></good>
							<originalvideofilename></originalvideofilename>
							<originalaudiofilename></originalaudiofilename>
						</logginginfo>
						<colorinfo>
							<lut></lut>
							<lut1></lut1>
							<asc_sop></asc_sop>
							<asc_sat></asc_sat>
							<lut2></lut2>
						</colorinfo>
						<labels>
							<label2>Lavender</label2>
						</labels>
					</clipitem>
					<enabled>TRUE</enabled>
					<locked>FALSE</locked>
				</track>
				<track TL.SQTrackShy="0" TL.SQTrackExpandedHeight="25" TL.SQTrackExpanded="0" MZ.TrackTargeted="0">
					<clipitem id="clipitem-14">
						<masterclipid>masterclip-9</masterclipid>
						<name>07.jpg</name>
						<enabled>TRUE</enabled>
						<duration>1294705</duration>
						<rate>
							<timebase>30</timebase>
							<ntsc>TRUE</ntsc>
						</rate>
						<start>772</start>
						<end>873</end>
						<in>107891</in>
						<out>107979</out>
						<pproTicksIn>914450168175244</pproTicksIn>
						<pproTicksOut>915200771334896</pproTicksOut>
						<alphatype>none</alphatype>
						<pixelaspectratio>square</pixelaspectratio>
						<anamorphic>FALSE</anamorphic>
						<file id="file-9">
							<name>07.jpg</name>
							<pathurl>file://localhost/Users/apple/Desktop/07.jpg</pathurl>
							<rate>
								<timebase>30</timebase>
								<ntsc>TRUE</ntsc>
							</rate>
							<timecode>
								<rate>
									<timebase>30</timebase>
									<ntsc>TRUE</ntsc>
								</rate>
								<string>00;00;11;18</string>
								<frame>348</frame>
								<displayformat>DF</displayformat>
							</timecode>
							<media>
								<video>
									<samplecharacteristics>
										<rate>
											<timebase>30</timebase>
											<ntsc>TRUE</ntsc>
										</rate>
										<width>1080</width>
										<height>2094</height>
										<anamorphic>FALSE</anamorphic>
										<pixelaspectratio>square</pixelaspectratio>
										<fielddominance>none</fielddominance>
									</samplecharacteristics>
								</video>
							</media>
						</file>
						<logginginfo>
							<description></description>
							<scene></scene>
							<shottake></shottake>
							<lognote></lognote>
							<good></good>
							<originalvideofilename></originalvideofilename>
							<originalaudiofilename></originalaudiofilename>
						</logginginfo>
						<colorinfo>
							<lut></lut>
							<lut1></lut1>
							<asc_sop></asc_sop>
							<asc_sat></asc_sat>
							<lut2></lut2>
						</colorinfo>
						<labels>
							<label2>Lavender</label2>
						</labels>
					</clipitem>
					<enabled>TRUE</enabled>
					<locked>FALSE</locked>
				</track>
			</video>
			<audio>
				<numOutputChannels>2</numOutputChannels>
				<format>
					<samplecharacteristics>
						<depth>16</depth>
						<samplerate>48000</samplerate>
					</samplecharacteristics>
				</format>
				<outputs>
					<group>
						<index>1</index>
						<numchannels>1</numchannels>
						<downmix>0</downmix>
						<channel>
							<index>1</index>
						</channel>
					</group>
					<group>
						<index>2</index>
						<numchannels>1</numchannels>
						<downmix>0</downmix>
						<channel>
							<index>2</index>
						</channel>
					</group>
				</outputs>
				<track TL.SQTrackAudioKeyframeStyle="0" TL.SQTrackShy="0" TL.SQTrackExpandedHeight="25" TL.SQTrackExpanded="0" MZ.TrackTargeted="1" PannerCurrentValue="0.5" PannerIsInverted="true" PannerStartKeyframe="-91445760000000000,0.5,0,0,0,0,0,0" PannerName="平衡" currentExplodedTrackIndex="0" totalExplodedTrackCount="2" premiereTrackType="Stereo">
					<enabled>TRUE</enabled>
					<locked>FALSE</locked>
					<outputchannelindex>1</outputchannelindex>
				</track>
				<track TL.SQTrackAudioKeyframeStyle="0" TL.SQTrackShy="0" TL.SQTrackExpandedHeight="25" TL.SQTrackExpanded="0" MZ.TrackTargeted="1" PannerCurrentValue="0.5" PannerIsInverted="true" PannerStartKeyframe="-91445760000000000,0.5,0,0,0,0,0,0" PannerName="平衡" currentExplodedTrackIndex="1" totalExplodedTrackCount="2" premiereTrackType="Stereo">
					<enabled>TRUE</enabled>
					<locked>FALSE</locked>
					<outputchannelindex>2</outputchannelindex>
				</track>
				<track TL.SQTrackAudioKeyframeStyle="0" TL.SQTrackShy="0" TL.SQTrackExpandedHeight="25" TL.SQTrackExpanded="0" MZ.TrackTargeted="1" PannerCurrentValue="0.5" PannerIsInverted="true" PannerStartKeyframe="-91445760000000000,0.5,0,0,0,0,0,0" PannerName="平衡" currentExplodedTrackIndex="0" totalExplodedTrackCount="2" premiereTrackType="Stereo">
					<clipitem id="clipitem-15" premiereChannelType="stereo">
						<masterclipid>masterclip-10</masterclipid>
						<name>摩托车.m4a</name>
						<enabled>TRUE</enabled>
						<duration>5169</duration>
						<rate>
							<timebase>34</timebase>
							<ntsc>FALSE</ntsc>
						</rate>
						<start>0</start>
						<end>45</end>
						<in>3088</in>
						<out>3133</out>
						<pproTicksIn>22949134227776</pproTicksIn>
						<pproTicksOut>23283561378116</pproTicksOut>
						<file id="file-10">
							<name>摩托车.m4a</name>
							<pathurl>file://localhost/Users/apple/Downloads/%e6%91%a9%e6%89%98%e8%bd%a6.m4a</pathurl>
							<rate>
								<timebase>30</timebase>
								<ntsc>TRUE</ntsc>
							</rate>
							<duration>4532</duration>
							<timecode>
								<rate>
									<timebase>30</timebase>
									<ntsc>TRUE</ntsc>
								</rate>
								<string>00;00;00;00</string>
								<frame>0</frame>
								<displayformat>DF</displayformat>
							</timecode>
							<media>
								<audio>
									<samplecharacteristics>
										<depth>16</depth>
										<samplerate>44100</samplerate>
									</samplecharacteristics>
									<channelcount>2</channelcount>
								</audio>
							</media>
						</file>
						<sourcetrack>
							<mediatype>audio</mediatype>
							<trackindex>1</trackindex>
						</sourcetrack>
						<link>
							<linkclipref>clipitem-15</linkclipref>
							<mediatype>audio</mediatype>
							<trackindex>3</trackindex>
							<clipindex>1</clipindex>
							<groupindex>1</groupindex>
						</link>
						<link>
							<linkclipref>clipitem-24</linkclipref>
							<mediatype>audio</mediatype>
							<trackindex>4</trackindex>
							<clipindex>1</clipindex>
							<groupindex>1</groupindex>
						</link>
						<logginginfo>
							<description></description>
							<scene></scene>
							<shottake></shottake>
							<lognote></lognote>
							<good></good>
							<originalvideofilename></originalvideofilename>
							<originalaudiofilename></originalaudiofilename>
						</logginginfo>
						<colorinfo>
							<lut></lut>
							<lut1></lut1>
							<asc_sop></asc_sop>
							<asc_sat></asc_sat>
							<lut2></lut2>
						</colorinfo>
						<labels>
							<label2>Caribbean</label2>
						</labels>
					</clipitem>
					<clipitem id="clipitem-16" premiereChannelType="stereo">
						<masterclipid>masterclip-10</masterclipid>
						<name>摩托车.m4a</name>
						<enabled>TRUE</enabled>
						<duration>5169</duration>
						<rate>
							<timebase>34</timebase>
							<ntsc>FALSE</ntsc>
						</rate>
						<start>45</start>
						<end>121</end>
						<in>3176</in>
						<out>3252</out>
						<pproTicksIn>23603125099552</pproTicksIn>
						<pproTicksOut>24167935397904</pproTicksOut>
						<file id="file-10"/>
						<sourcetrack>
							<mediatype>audio</mediatype>
							<trackindex>1</trackindex>
						</sourcetrack>
						<link>
							<linkclipref>clipitem-16</linkclipref>
							<mediatype>audio</mediatype>
							<trackindex>3</trackindex>
							<clipindex>2</clipindex>
							<groupindex>1</groupindex>
						</link>
						<link>
							<linkclipref>clipitem-25</linkclipref>
							<mediatype>audio</mediatype>
							<trackindex>4</trackindex>
							<clipindex>2</clipindex>
							<groupindex>1</groupindex>
						</link>
						<logginginfo>
							<description></description>
							<scene></scene>
							<shottake></shottake>
							<lognote></lognote>
							<good></good>
							<originalvideofilename></originalvideofilename>
							<originalaudiofilename></originalaudiofilename>
						</logginginfo>
						<colorinfo>
							<lut></lut>
							<lut1></lut1>
							<asc_sop></asc_sop>
							<asc_sat></asc_sat>
							<lut2></lut2>
						</colorinfo>
						<labels>
							<label2>Caribbean</label2>
						</labels>
					</clipitem>
					<clipitem id="clipitem-17" premiereChannelType="stereo">
						<masterclipid>masterclip-10</masterclipid>
						<name>摩托车.m4a</name>
						<enabled>TRUE</enabled>
						<duration>5169</duration>
						<rate>
							<timebase>34</timebase>
							<ntsc>FALSE</ntsc>
						</rate>
						<start>121</start>
						<end>167</end>
						<in>3273</in>
						<out>3319</out>
						<pproTicksIn>24324001401396</pproTicksIn>
						<pproTicksOut>24665860266188</pproTicksOut>
						<file id="file-10"/>
						<sourcetrack>
							<mediatype>audio</mediatype>
							<trackindex>1</trackindex>
						</sourcetrack>
						<link>
							<linkclipref>clipitem-17</linkclipref>
							<mediatype>audio</mediatype>
							<trackindex>3</trackindex>
							<clipindex>3</clipindex>
							<groupindex>1</groupindex>
						</link>
						<link>
							<linkclipref>clipitem-26</linkclipref>
							<mediatype>audio</mediatype>
							<trackindex>4</trackindex>
							<clipindex>3</clipindex>
							<groupindex>1</groupindex>
						</link>
						<logginginfo>
							<description></description>
							<scene></scene>
							<shottake></shottake>
							<lognote></lognote>
							<good></good>
							<originalvideofilename></originalvideofilename>
							<originalaudiofilename></originalaudiofilename>
						</logginginfo>
						<colorinfo>
							<lut></lut>
							<lut1></lut1>
							<asc_sop></asc_sop>
							<asc_sat></asc_sat>
							<lut2></lut2>
						</colorinfo>
						<labels>
							<label2>Caribbean</label2>
						</labels>
					</clipitem>
					<clipitem id="clipitem-18" premiereChannelType="stereo">
						<masterclipid>masterclip-10</masterclipid>
						<name>摩托车.m4a</name>
						<enabled>TRUE</enabled>
						<duration>5169</duration>
						<rate>
							<timebase>34</timebase>
							<ntsc>FALSE</ntsc>
						</rate>
						<start>193</start>
						<end>365</end>
						<in>3676</in>
						<out>3848</out>
						<pproTicksIn>27318982325552</pproTicksIn>
						<pproTicksOut>28597237211296</pproTicksOut>
						<file id="file-10"/>
						<sourcetrack>
							<mediatype>audio</mediatype>
							<trackindex>1</trackindex>
						</sourcetrack>
						<link>
							<linkclipref>clipitem-18</linkclipref>
							<mediatype>audio</mediatype>
							<trackindex>3</trackindex>
							<clipindex>4</clipindex>
							<groupindex>1</groupindex>
						</link>
						<link>
							<linkclipref>clipitem-27</linkclipref>
							<mediatype>audio</mediatype>
							<trackindex>4</trackindex>
							<clipindex>4</clipindex>
							<groupindex>1</groupindex>
						</link>
						<logginginfo>
							<description></description>
							<scene></scene>
							<shottake></shottake>
							<lognote></lognote>
							<good></good>
							<originalvideofilename></originalvideofilename>
							<originalaudiofilename></originalaudiofilename>
						</logginginfo>
						<colorinfo>
							<lut></lut>
							<lut1></lut1>
							<asc_sop></asc_sop>
							<asc_sat></asc_sat>
							<lut2></lut2>
						</colorinfo>
						<labels>
							<label2>Caribbean</label2>
						</labels>
					</clipitem>
					<clipitem id="clipitem-19" premiereChannelType="stereo">
						<masterclipid>masterclip-10</masterclipid>
						<name>摩托车.m4a</name>
						<enabled>TRUE</enabled>
						<duration>5169</duration>
						<rate>
							<timebase>34</timebase>
							<ntsc>FALSE</ntsc>
						</rate>
						<start>365</start>
						<end>451</end>
						<in>3951</in>
						<out>4037</out>
						<pproTicksIn>29362703799852</pproTicksIn>
						<pproTicksOut>30001831242724</pproTicksOut>
						<file id="file-10"/>
						<sourcetrack>
							<mediatype>audio</mediatype>
							<trackindex>1</trackindex>
						</sourcetrack>
						<link>
							<linkclipref>clipitem-19</linkclipref>
							<mediatype>audio</mediatype>
							<trackindex>3</trackindex>
							<clipindex>5</clipindex>
							<groupindex>1</groupindex>
						</link>
						<link>
							<linkclipref>clipitem-28</linkclipref>
							<mediatype>audio</mediatype>
							<trackindex>4</trackindex>
							<clipindex>5</clipindex>
							<groupindex>1</groupindex>
						</link>
						<logginginfo>
							<description></description>
							<scene></scene>
							<shottake></shottake>
							<lognote></lognote>
							<good></good>
							<originalvideofilename></originalvideofilename>
							<originalaudiofilename></originalaudiofilename>
						</logginginfo>
						<colorinfo>
							<lut></lut>
							<lut1></lut1>
							<asc_sop></asc_sop>
							<asc_sat></asc_sat>
							<lut2></lut2>
						</colorinfo>
						<labels>
							<label2>Caribbean</label2>
						</labels>
					</clipitem>
					<clipitem id="clipitem-20" premiereChannelType="stereo">
						<masterclipid>masterclip-10</masterclipid>
						<name>摩托车.m4a</name>
						<enabled>TRUE</enabled>
						<duration>5169</duration>
						<rate>
							<timebase>34</timebase>
							<ntsc>FALSE</ntsc>
						</rate>
						<start>451</start>
						<end>488</end>
						<in>4055</in>
						<out>4092</out>
						<pproTicksIn>30135602102860</pproTicksIn>
						<pproTicksOut>30410575537584</pproTicksOut>
						<file id="file-10"/>
						<sourcetrack>
							<mediatype>audio</mediatype>
							<trackindex>1</trackindex>
						</sourcetrack>
						<link>
							<linkclipref>clipitem-20</linkclipref>
							<mediatype>audio</mediatype>
							<trackindex>3</trackindex>
							<clipindex>6</clipindex>
							<groupindex>1</groupindex>
						</link>
						<link>
							<linkclipref>clipitem-29</linkclipref>
							<mediatype>audio</mediatype>
							<trackindex>4</trackindex>
							<clipindex>6</clipindex>
							<groupindex>1</groupindex>
						</link>
						<logginginfo>
							<description></description>
							<scene></scene>
							<shottake></shottake>
							<lognote></lognote>
							<good></good>
							<originalvideofilename></originalvideofilename>
							<originalaudiofilename></originalaudiofilename>
						</logginginfo>
						<colorinfo>
							<lut></lut>
							<lut1></lut1>
							<asc_sop></asc_sop>
							<asc_sat></asc_sat>
							<lut2></lut2>
						</colorinfo>
						<labels>
							<label2>Caribbean</label2>
						</labels>
					</clipitem>
					<clipitem id="clipitem-21" premiereChannelType="stereo">
						<masterclipid>masterclip-10</masterclipid>
						<name>摩托车.m4a</name>
						<enabled>TRUE</enabled>
						<duration>5169</duration>
						<rate>
							<timebase>34</timebase>
							<ntsc>FALSE</ntsc>
						</rate>
						<start>490</start>
						<end>661</end>
						<in>4356</in>
						<out>4527</out>
						<pproTicksIn>32372548152912</pproTicksIn>
						<pproTicksOut>33643371324204</pproTicksOut>
						<file id="file-10"/>
						<sourcetrack>
							<mediatype>audio</mediatype>
							<trackindex>1</trackindex>
						</sourcetrack>
						<link>
							<linkclipref>clipitem-21</linkclipref>
							<mediatype>audio</mediatype>
							<trackindex>3</trackindex>
							<clipindex>7</clipindex>
							<groupindex>1</groupindex>
						</link>
						<link>
							<linkclipref>clipitem-30</linkclipref>
							<mediatype>audio</mediatype>
							<trackindex>4</trackindex>
							<clipindex>7</clipindex>
							<groupindex>1</groupindex>
						</link>
						<logginginfo>
							<description></description>
							<scene></scene>
							<shottake></shottake>
							<lognote></lognote>
							<good></good>
							<originalvideofilename></originalvideofilename>
							<originalaudiofilename></originalaudiofilename>
						</logginginfo>
						<colorinfo>
							<lut></lut>
							<lut1></lut1>
							<asc_sop></asc_sop>
							<asc_sat></asc_sat>
							<lut2></lut2>
						</colorinfo>
						<labels>
							<label2>Caribbean</label2>
						</labels>
					</clipitem>
					<clipitem id="clipitem-22" premiereChannelType="stereo">
						<masterclipid>masterclip-10</masterclipid>
						<name>摩托车.m4a</name>
						<enabled>TRUE</enabled>
						<duration>5169</duration>
						<rate>
							<timebase>34</timebase>
							<ntsc>FALSE</ntsc>
						</rate>
						<start>661</start>
						<end>726</end>
						<in>4769</in>
						<out>4834</out>
						<pproTicksIn>35441846221588</pproTicksIn>
						<pproTicksOut>35924907660968</pproTicksOut>
						<file id="file-10"/>
						<sourcetrack>
							<mediatype>audio</mediatype>
							<trackindex>1</trackindex>
						</sourcetrack>
						<link>
							<linkclipref>clipitem-22</linkclipref>
							<mediatype>audio</mediatype>
							<trackindex>3</trackindex>
							<clipindex>8</clipindex>
							<groupindex>1</groupindex>
						</link>
						<link>
							<linkclipref>clipitem-31</linkclipref>
							<mediatype>audio</mediatype>
							<trackindex>4</trackindex>
							<clipindex>8</clipindex>
							<groupindex>1</groupindex>
						</link>
						<logginginfo>
							<description></description>
							<scene></scene>
							<shottake></shottake>
							<lognote></lognote>
							<good></good>
							<originalvideofilename></originalvideofilename>
							<originalaudiofilename></originalaudiofilename>
						</logginginfo>
						<colorinfo>
							<lut></lut>
							<lut1></lut1>
							<asc_sop></asc_sop>
							<asc_sat></asc_sat>
							<lut2></lut2>
						</colorinfo>
						<labels>
							<label2>Caribbean</label2>
						</labels>
					</clipitem>
					<clipitem id="clipitem-23" premiereChannelType="stereo">
						<masterclipid>masterclip-10</masterclipid>
						<name>摩托车.m4a</name>
						<enabled>TRUE</enabled>
						<duration>5169</duration>
						<rate>
							<timebase>34</timebase>
							<ntsc>FALSE</ntsc>
						</rate>
						<start>726</start>
						<end>788</end>
						<in>4898</in>
						<out>4960</out>
						<pproTicksIn>36400537385896</pproTicksIn>
						<pproTicksOut>36861303681920</pproTicksOut>
						<file id="file-10"/>
						<sourcetrack>
							<mediatype>audio</mediatype>
							<trackindex>1</trackindex>
						</sourcetrack>
						<link>
							<linkclipref>clipitem-23</linkclipref>
							<mediatype>audio</mediatype>
							<trackindex>3</trackindex>
							<clipindex>9</clipindex>
							<groupindex>1</groupindex>
						</link>
						<link>
							<linkclipref>clipitem-32</linkclipref>
							<mediatype>audio</mediatype>
							<trackindex>4</trackindex>
							<clipindex>9</clipindex>
							<groupindex>1</groupindex>
						</link>
						<logginginfo>
							<description></description>
							<scene></scene>
							<shottake></shottake>
							<lognote></lognote>
							<good></good>
							<originalvideofilename></originalvideofilename>
							<originalaudiofilename></originalaudiofilename>
						</logginginfo>
						<colorinfo>
							<lut></lut>
							<lut1></lut1>
							<asc_sop></asc_sop>
							<asc_sat></asc_sat>
							<lut2></lut2>
						</colorinfo>
						<labels>
							<label2>Caribbean</label2>
						</labels>
					</clipitem>
					<enabled>TRUE</enabled>
					<locked>FALSE</locked>
					<outputchannelindex>1</outputchannelindex>
				</track>
				<track TL.SQTrackAudioKeyframeStyle="0" TL.SQTrackShy="0" TL.SQTrackExpandedHeight="25" TL.SQTrackExpanded="0" MZ.TrackTargeted="1" PannerCurrentValue="0.5" PannerIsInverted="true" PannerStartKeyframe="-91445760000000000,0.5,0,0,0,0,0,0" PannerName="平衡" currentExplodedTrackIndex="1" totalExplodedTrackCount="2" premiereTrackType="Stereo">
					<clipitem id="clipitem-24" premiereChannelType="stereo">
						<masterclipid>masterclip-10</masterclipid>
						<name>摩托车.m4a</name>
						<enabled>TRUE</enabled>
						<duration>5169</duration>
						<rate>
							<timebase>34</timebase>
							<ntsc>FALSE</ntsc>
						</rate>
						<start>0</start>
						<end>45</end>
						<in>3088</in>
						<out>3133</out>
						<pproTicksIn>22949134227776</pproTicksIn>
						<pproTicksOut>23283561378116</pproTicksOut>
						<file id="file-10"/>
						<sourcetrack>
							<mediatype>audio</mediatype>
							<trackindex>2</trackindex>
						</sourcetrack>
						<link>
							<linkclipref>clipitem-15</linkclipref>
							<mediatype>audio</mediatype>
							<trackindex>3</trackindex>
							<clipindex>1</clipindex>
							<groupindex>1</groupindex>
						</link>
						<link>
							<linkclipref>clipitem-24</linkclipref>
							<mediatype>audio</mediatype>
							<trackindex>4</trackindex>
							<clipindex>1</clipindex>
							<groupindex>1</groupindex>
						</link>
						<logginginfo>
							<description></description>
							<scene></scene>
							<shottake></shottake>
							<lognote></lognote>
							<good></good>
							<originalvideofilename></originalvideofilename>
							<originalaudiofilename></originalaudiofilename>
						</logginginfo>
						<colorinfo>
							<lut></lut>
							<lut1></lut1>
							<asc_sop></asc_sop>
							<asc_sat></asc_sat>
							<lut2></lut2>
						</colorinfo>
						<labels>
							<label2>Caribbean</label2>
						</labels>
					</clipitem>
					<clipitem id="clipitem-25" premiereChannelType="stereo">
						<masterclipid>masterclip-10</masterclipid>
						<name>摩托车.m4a</name>
						<enabled>TRUE</enabled>
						<duration>5169</duration>
						<rate>
							<timebase>34</timebase>
							<ntsc>FALSE</ntsc>
						</rate>
						<start>45</start>
						<end>121</end>
						<in>3176</in>
						<out>3252</out>
						<pproTicksIn>23603125099552</pproTicksIn>
						<pproTicksOut>24167935397904</pproTicksOut>
						<file id="file-10"/>
						<sourcetrack>
							<mediatype>audio</mediatype>
							<trackindex>2</trackindex>
						</sourcetrack>
						<link>
							<linkclipref>clipitem-16</linkclipref>
							<mediatype>audio</mediatype>
							<trackindex>3</trackindex>
							<clipindex>2</clipindex>
							<groupindex>1</groupindex>
						</link>
						<link>
							<linkclipref>clipitem-25</linkclipref>
							<mediatype>audio</mediatype>
							<trackindex>4</trackindex>
							<clipindex>2</clipindex>
							<groupindex>1</groupindex>
						</link>
						<logginginfo>
							<description></description>
							<scene></scene>
							<shottake></shottake>
							<lognote></lognote>
							<good></good>
							<originalvideofilename></originalvideofilename>
							<originalaudiofilename></originalaudiofilename>
						</logginginfo>
						<colorinfo>
							<lut></lut>
							<lut1></lut1>
							<asc_sop></asc_sop>
							<asc_sat></asc_sat>
							<lut2></lut2>
						</colorinfo>
						<labels>
							<label2>Caribbean</label2>
						</labels>
					</clipitem>
					<clipitem id="clipitem-26" premiereChannelType="stereo">
						<masterclipid>masterclip-10</masterclipid>
						<name>摩托车.m4a</name>
						<enabled>TRUE</enabled>
						<duration>5169</duration>
						<rate>
							<timebase>34</timebase>
							<ntsc>FALSE</ntsc>
						</rate>
						<start>121</start>
						<end>167</end>
						<in>3273</in>
						<out>3319</out>
						<pproTicksIn>24324001401396</pproTicksIn>
						<pproTicksOut>24665860266188</pproTicksOut>
						<file id="file-10"/>
						<sourcetrack>
							<mediatype>audio</mediatype>
							<trackindex>2</trackindex>
						</sourcetrack>
						<link>
							<linkclipref>clipitem-17</linkclipref>
							<mediatype>audio</mediatype>
							<trackindex>3</trackindex>
							<clipindex>3</clipindex>
							<groupindex>1</groupindex>
						</link>
						<link>
							<linkclipref>clipitem-26</linkclipref>
							<mediatype>audio</mediatype>
							<trackindex>4</trackindex>
							<clipindex>3</clipindex>
							<groupindex>1</groupindex>
						</link>
						<logginginfo>
							<description></description>
							<scene></scene>
							<shottake></shottake>
							<lognote></lognote>
							<good></good>
							<originalvideofilename></originalvideofilename>
							<originalaudiofilename></originalaudiofilename>
						</logginginfo>
						<colorinfo>
							<lut></lut>
							<lut1></lut1>
							<asc_sop></asc_sop>
							<asc_sat></asc_sat>
							<lut2></lut2>
						</colorinfo>
						<labels>
							<label2>Caribbean</label2>
						</labels>
					</clipitem>
					<clipitem id="clipitem-27" premiereChannelType="stereo">
						<masterclipid>masterclip-10</masterclipid>
						<name>摩托车.m4a</name>
						<enabled>TRUE</enabled>
						<duration>5169</duration>
						<rate>
							<timebase>34</timebase>
							<ntsc>FALSE</ntsc>
						</rate>
						<start>193</start>
						<end>365</end>
						<in>3676</in>
						<out>3848</out>
						<pproTicksIn>27318982325552</pproTicksIn>
						<pproTicksOut>28597237211296</pproTicksOut>
						<file id="file-10"/>
						<sourcetrack>
							<mediatype>audio</mediatype>
							<trackindex>2</trackindex>
						</sourcetrack>
						<link>
							<linkclipref>clipitem-18</linkclipref>
							<mediatype>audio</mediatype>
							<trackindex>3</trackindex>
							<clipindex>4</clipindex>
							<groupindex>1</groupindex>
						</link>
						<link>
							<linkclipref>clipitem-27</linkclipref>
							<mediatype>audio</mediatype>
							<trackindex>4</trackindex>
							<clipindex>4</clipindex>
							<groupindex>1</groupindex>
						</link>
						<logginginfo>
							<description></description>
							<scene></scene>
							<shottake></shottake>
							<lognote></lognote>
							<good></good>
							<originalvideofilename></originalvideofilename>
							<originalaudiofilename></originalaudiofilename>
						</logginginfo>
						<colorinfo>
							<lut></lut>
							<lut1></lut1>
							<asc_sop></asc_sop>
							<asc_sat></asc_sat>
							<lut2></lut2>
						</colorinfo>
						<labels>
							<label2>Caribbean</label2>
						</labels>
					</clipitem>
					<clipitem id="clipitem-28" premiereChannelType="stereo">
						<masterclipid>masterclip-10</masterclipid>
						<name>摩托车.m4a</name>
						<enabled>TRUE</enabled>
						<duration>5169</duration>
						<rate>
							<timebase>34</timebase>
							<ntsc>FALSE</ntsc>
						</rate>
						<start>365</start>
						<end>451</end>
						<in>3951</in>
						<out>4037</out>
						<pproTicksIn>29362703799852</pproTicksIn>
						<pproTicksOut>30001831242724</pproTicksOut>
						<file id="file-10"/>
						<sourcetrack>
							<mediatype>audio</mediatype>
							<trackindex>2</trackindex>
						</sourcetrack>
						<link>
							<linkclipref>clipitem-19</linkclipref>
							<mediatype>audio</mediatype>
							<trackindex>3</trackindex>
							<clipindex>5</clipindex>
							<groupindex>1</groupindex>
						</link>
						<link>
							<linkclipref>clipitem-28</linkclipref>
							<mediatype>audio</mediatype>
							<trackindex>4</trackindex>
							<clipindex>5</clipindex>
							<groupindex>1</groupindex>
						</link>
						<logginginfo>
							<description></description>
							<scene></scene>
							<shottake></shottake>
							<lognote></lognote>
							<good></good>
							<originalvideofilename></originalvideofilename>
							<originalaudiofilename></originalaudiofilename>
						</logginginfo>
						<colorinfo>
							<lut></lut>
							<lut1></lut1>
							<asc_sop></asc_sop>
							<asc_sat></asc_sat>
							<lut2></lut2>
						</colorinfo>
						<labels>
							<label2>Caribbean</label2>
						</labels>
					</clipitem>
					<clipitem id="clipitem-29" premiereChannelType="stereo">
						<masterclipid>masterclip-10</masterclipid>
						<name>摩托车.m4a</name>
						<enabled>TRUE</enabled>
						<duration>5169</duration>
						<rate>
							<timebase>34</timebase>
							<ntsc>FALSE</ntsc>
						</rate>
						<start>451</start>
						<end>488</end>
						<in>4055</in>
						<out>4092</out>
						<pproTicksIn>30135602102860</pproTicksIn>
						<pproTicksOut>30410575537584</pproTicksOut>
						<file id="file-10"/>
						<sourcetrack>
							<mediatype>audio</mediatype>
							<trackindex>2</trackindex>
						</sourcetrack>
						<link>
							<linkclipref>clipitem-20</linkclipref>
							<mediatype>audio</mediatype>
							<trackindex>3</trackindex>
							<clipindex>6</clipindex>
							<groupindex>1</groupindex>
						</link>
						<link>
							<linkclipref>clipitem-29</linkclipref>
							<mediatype>audio</mediatype>
							<trackindex>4</trackindex>
							<clipindex>6</clipindex>
							<groupindex>1</groupindex>
						</link>
						<logginginfo>
							<description></description>
							<scene></scene>
							<shottake></shottake>
							<lognote></lognote>
							<good></good>
							<originalvideofilename></originalvideofilename>
							<originalaudiofilename></originalaudiofilename>
						</logginginfo>
						<colorinfo>
							<lut></lut>
							<lut1></lut1>
							<asc_sop></asc_sop>
							<asc_sat></asc_sat>
							<lut2></lut2>
						</colorinfo>
						<labels>
							<label2>Caribbean</label2>
						</labels>
					</clipitem>
					<clipitem id="clipitem-30" premiereChannelType="stereo">
						<masterclipid>masterclip-10</masterclipid>
						<name>摩托车.m4a</name>
						<enabled>TRUE</enabled>
						<duration>5169</duration>
						<rate>
							<timebase>34</timebase>
							<ntsc>FALSE</ntsc>
						</rate>
						<start>490</start>
						<end>661</end>
						<in>4356</in>
						<out>4527</out>
						<pproTicksIn>32372548152912</pproTicksIn>
						<pproTicksOut>33643371324204</pproTicksOut>
						<file id="file-10"/>
						<sourcetrack>
							<mediatype>audio</mediatype>
							<trackindex>2</trackindex>
						</sourcetrack>
						<link>
							<linkclipref>clipitem-21</linkclipref>
							<mediatype>audio</mediatype>
							<trackindex>3</trackindex>
							<clipindex>7</clipindex>
							<groupindex>1</groupindex>
						</link>
						<link>
							<linkclipref>clipitem-30</linkclipref>
							<mediatype>audio</mediatype>
							<trackindex>4</trackindex>
							<clipindex>7</clipindex>
							<groupindex>1</groupindex>
						</link>
						<logginginfo>
							<description></description>
							<scene></scene>
							<shottake></shottake>
							<lognote></lognote>
							<good></good>
							<originalvideofilename></originalvideofilename>
							<originalaudiofilename></originalaudiofilename>
						</logginginfo>
						<colorinfo>
							<lut></lut>
							<lut1></lut1>
							<asc_sop></asc_sop>
							<asc_sat></asc_sat>
							<lut2></lut2>
						</colorinfo>
						<labels>
							<label2>Caribbean</label2>
						</labels>
					</clipitem>
					<clipitem id="clipitem-31" premiereChannelType="stereo">
						<masterclipid>masterclip-10</masterclipid>
						<name>摩托车.m4a</name>
						<enabled>TRUE</enabled>
						<duration>5169</duration>
						<rate>
							<timebase>34</timebase>
							<ntsc>FALSE</ntsc>
						</rate>
						<start>661</start>
						<end>726</end>
						<in>4769</in>
						<out>4834</out>
						<pproTicksIn>35441846221588</pproTicksIn>
						<pproTicksOut>35924907660968</pproTicksOut>
						<file id="file-10"/>
						<sourcetrack>
							<mediatype>audio</mediatype>
							<trackindex>2</trackindex>
						</sourcetrack>
						<link>
							<linkclipref>clipitem-22</linkclipref>
							<mediatype>audio</mediatype>
							<trackindex>3</trackindex>
							<clipindex>8</clipindex>
							<groupindex>1</groupindex>
						</link>
						<link>
							<linkclipref>clipitem-31</linkclipref>
							<mediatype>audio</mediatype>
							<trackindex>4</trackindex>
							<clipindex>8</clipindex>
							<groupindex>1</groupindex>
						</link>
						<logginginfo>
							<description></description>
							<scene></scene>
							<shottake></shottake>
							<lognote></lognote>
							<good></good>
							<originalvideofilename></originalvideofilename>
							<originalaudiofilename></originalaudiofilename>
						</logginginfo>
						<colorinfo>
							<lut></lut>
							<lut1></lut1>
							<asc_sop></asc_sop>
							<asc_sat></asc_sat>
							<lut2></lut2>
						</colorinfo>
						<labels>
							<label2>Caribbean</label2>
						</labels>
					</clipitem>
					<clipitem id="clipitem-32" premiereChannelType="stereo">
						<masterclipid>masterclip-10</masterclipid>
						<name>摩托车.m4a</name>
						<enabled>TRUE</enabled>
						<duration>5169</duration>
						<rate>
							<timebase>34</timebase>
							<ntsc>FALSE</ntsc>
						</rate>
						<start>726</start>
						<end>788</end>
						<in>4898</in>
						<out>4960</out>
						<pproTicksIn>36400537385896</pproTicksIn>
						<pproTicksOut>36861303681920</pproTicksOut>
						<file id="file-10"/>
						<sourcetrack>
							<mediatype>audio</mediatype>
							<trackindex>2</trackindex>
						</sourcetrack>
						<link>
							<linkclipref>clipitem-23</linkclipref>
							<mediatype>audio</mediatype>
							<trackindex>3</trackindex>
							<clipindex>9</clipindex>
							<groupindex>1</groupindex>
						</link>
						<link>
							<linkclipref>clipitem-32</linkclipref>
							<mediatype>audio</mediatype>
							<trackindex>4</trackindex>
							<clipindex>9</clipindex>
							<groupindex>1</groupindex>
						</link>
						<logginginfo>
							<description></description>
							<scene></scene>
							<shottake></shottake>
							<lognote></lognote>
							<good></good>
							<originalvideofilename></originalvideofilename>
							<originalaudiofilename></originalaudiofilename>
						</logginginfo>
						<colorinfo>
							<lut></lut>
							<lut1></lut1>
							<asc_sop></asc_sop>
							<asc_sat></asc_sat>
							<lut2></lut2>
						</colorinfo>
						<labels>
							<label2>Caribbean</label2>
						</labels>
					</clipitem>
					<enabled>TRUE</enabled>
					<locked>FALSE</locked>
					<outputchannelindex>2</outputchannelindex>
				</track>
				<track TL.SQTrackAudioKeyframeStyle="0" TL.SQTrackShy="0" TL.SQTrackExpandedHeight="25" TL.SQTrackExpanded="0" MZ.TrackTargeted="1" PannerCurrentValue="0.5" PannerIsInverted="true" PannerStartKeyframe="-91445760000000000,0.5,0,0,0,0,0,0" PannerName="平衡" currentExplodedTrackIndex="0" totalExplodedTrackCount="2" premiereTrackType="Stereo">
					<enabled>TRUE</enabled>
					<locked>FALSE</locked>
					<outputchannelindex>1</outputchannelindex>
				</track>
				<track TL.SQTrackAudioKeyframeStyle="0" TL.SQTrackShy="0" TL.SQTrackExpandedHeight="25" TL.SQTrackExpanded="0" MZ.TrackTargeted="1" PannerCurrentValue="0.5" PannerIsInverted="true" PannerStartKeyframe="-91445760000000000,0.5,0,0,0,0,0,0" PannerName="平衡" currentExplodedTrackIndex="1" totalExplodedTrackCount="2" premiereTrackType="Stereo">
					<enabled>TRUE</enabled>
					<locked>FALSE</locked>
					<outputchannelindex>2</outputchannelindex>
				</track>
			</audio>
		</media>
		<timecode>
			<rate>
				<timebase>34</timebase>
				<ntsc>FALSE</ntsc>
			</rate>
			<string>00:00:00:00</string>
			<frame>0</frame>
			<displayformat>NDF</displayformat>
		</timecode>
		<labels>
			<label2>Forest</label2>
		</labels>
	</sequence>
</xmeml>
